<?xml version="1.0" encoding="utf-8"?>
<svg version="1.2" xmlns="http://www.w3.org/2000/svg" viewBox="0 0 6772 1080" width="6772px" height="1080px" xmlns:bx="https://boxy-svg.com" preserveAspectRatio="none"><defs><bx:export><bx:file format="svg" path="dino-gear-svg.svg"/></bx:export></defs><title>dino-gear-svg</title><style>
		.s0 { fill: #1e1e1e } 
	</style><g id="Background" transform="matrix(1, 0, 0, 1, 0, 52)"><path id="Path 1" fill-rule="evenodd" class="s0" d="m543.9 21.5l3 3c1.7 1.7 3.6 4.1 4.1 5.5 0.5 1.4 7 22.4 14.5 46.8 7.4 24.3 14.1 45.4 14.9 47 0.8 1.5 2.2 3.5 3.2 4.4 1.1 0.9 7.8 3.3 14.9 5.2 7.1 1.9 14.9 4.2 17.2 5.1 3.7 1.3 4.8 1.3 7.5 0.2 1.8-0.8 14.3-11.9 27.8-24.8 13.5-12.9 29.9-28.5 36.5-34.7 10.8-10.1 12.5-11.3 16.5-11.8 3.4-0.5 5.4-0.2 8 1.2 1.9 1.1 6.1 3.6 9.2 5.7 3.2 2 6 3.7 6.3 3.7 0.3 0 5.5 3.2 11.5 7 6 3.9 11.2 7 11.5 7 0.3 0 1.7 0.9 3.2 1.9 1.6 1 8.8 5.5 16 10 7.3 4.5 13.5 8.1 13.8 8.1 0.3 0 2.4 1.3 4.7 2.9 2.4 1.5 5.3 4.1 6.6 5.7 1.2 1.6 2.5 4.3 2.8 5.9 0.4 2.1-3.7 17.8-13 50.5-7.5 26.1-13.6 48.6-13.6 50 0.1 1.4 0.6 3.7 1.3 5.2 0.7 1.5 5.5 7.3 10.7 12.9 5.2 5.7 10.9 11.1 12.5 12.1 1.6 1 4.2 1.8 5.7 1.8 1.6 0 24.1-4 50-9 26-4.9 48.3-9 49.5-9 1.3 0 3.5 0.6 5 1.4 1.6 0.8 3.8 2.5 4.9 3.8 1.2 1.2 11.7 21.3 23.3 44.6 11.9 23.8 21.1 43.4 21.1 45 0 1.5-0.4 4.1-1 5.7-0.6 1.9-5.4 6.8-13.1 13.5-6.7 5.8-23.2 20.2-36.7 32-13.5 11.8-25.5 23.1-26.6 25-1.1 1.9-1.9 5.1-1.8 7 0.1 1.9 1.4 9.8 2.9 17.5 2.4 12.4 3 14.4 5.7 17.2 2.4 2.4 8.3 5.2 25.1 11.8 12.1 4.8 32.1 12.8 44.5 17.7 12.4 4.9 24.2 10 26.2 11.3 2.1 1.4 4.5 4 5.4 5.8 1.5 3 1.3 6.1-3.1 50.7-3 30.3-5.2 48.5-6.1 50.3-0.8 1.5-2.9 3.6-4.7 4.7-2.3 1.4-11.2 3.1-33.7 6.5-16.8 2.5-38.1 5.6-47.5 7-9.4 1.4-18.1 3-19.5 3.5-1.4 0.5-3.5 2-4.7 3.2-1.2 1.3-5.2 9.9-8.8 19.3-5.8 14.6-6.6 17.6-6 21 0.3 2.2 2.1 6 3.9 8.5 1.8 2.5 14.7 20.3 28.6 39.5 14 19.3 26 36.8 26.8 39 1 2.5 1.3 5.3 0.8 7.5-0.4 2.6-8.3 13.2-29 39.5-18.9 23.9-29.6 36.6-31.8 37.8-1.8 0.9-4.7 1.7-6.3 1.7-1.6 0-14-4.9-27.5-10.9-13.5-6-33.7-15.1-45-20.1-18.1-8.1-21-9.1-25-8.8-3.8 0.4-7 2.3-21.5 12.5-9.4 6.6-17.7 13.1-18.6 14.4-0.9 1.3-1.8 3.5-2.2 4.9-0.3 1.4 0.5 23.4 1.9 49 1.4 25.6 2.4 48.5 2.2 51-0.2 2.5-1.3 5.7-2.4 7.2-1 1.4-2.8 3.2-3.9 3.9-1.1 0.6-11.7 4.5-23.5 8.6-11.8 4.1-30.8 10.6-42.2 14.4-19 6.3-21.2 6.8-24.8 5.9-3-0.8-4.8-2.1-7.5-5.7-2-2.7-14.2-21-27.1-40.8-13-19.8-24.3-36.8-25.3-37.9-0.9-1-3-2.5-4.6-3.2-2.4-1-7.8-1.1-27.5-0.2-19.5 0.8-25.3 1.4-28.5 2.8-3.8 1.6-5 3.5-20.9 31.1-9.3 16.2-20.6 35.7-25.1 43.4-5.8 9.9-9.2 14.7-11.6 16.2-2 1.3-5 2.3-7.4 2.3-2.2 0-10.5-1.4-18.5-3-8-1.7-21.9-4.9-31-7.1-9.1-2.3-20.8-5.4-26-7.1-6.7-2.1-10.5-3.9-12.8-6.1-1.8-1.8-3.6-4.6-4.1-6.2-0.5-1.6-1.2-24.7-1.5-51.2-0.5-40.1-0.9-48.8-2.1-51.3-1.1-2.2-4.9-5-13.7-10.2-6.8-3.9-17.5-10.2-23.8-14-9.4-5.6-12.3-6.8-15.7-6.8-3 0-6.9 1.3-13 4.3-4.9 2.4-20.5 10.4-34.8 17.7-14.3 7.3-30.2 15.5-35.2 18.1-6 3.2-10.6 4.9-12.8 4.9-1.9 0-4.5-0.4-5.7-0.9-1.3-0.4-14.9-14.3-30.2-30.7-15.3-16.4-29.1-31.4-30.5-33.3-2-2.6-2.6-4.6-2.6-8.2 0-3.1 0.6-5.3 1.7-6.5 1-1.1 1.8-2.2 1.8-2.6 0-0.5 1.5-2.9 3.3-5.5 1.7-2.7 3.7-5.6 4.2-6.5 0.5-1 9.8-15.6 20.6-32.5 10.8-16.9 20.2-31.9 20.9-33.3 0.7-1.4 1.1-4.4 0.8-7-0.3-3.1-4-11.5-11.7-27-6.2-12.4-12.3-23.5-13.4-24.8-1.2-1.2-3.3-2.7-4.7-3.2-1.4-0.5-24.1-3-50.5-5.6-30.8-2.9-49-5.1-50.7-6-1.6-0.8-3.8-2.9-5-4.6-1.8-2.7-3.5-11.1-9-43.8-3.7-22.3-6.8-42.1-6.8-44 0-2.1 1-4.9 2.4-7 2.2-3.1 7.5-5.8 47.8-24.4 24.9-11.5 45.9-21.4 46.7-22 0.7-0.6 2-2.3 2.7-3.8 0.8-1.6 2.8-13 4.4-25.5 1.7-12.6 3-24.3 3-26 0-1.8-0.6-4.5-1.4-6-0.8-1.6-17.3-15.2-39.2-32.3-20.8-16.2-39.3-30.7-41.1-32.2-1.8-1.6-3.3-3.7-3.3-4.8 0-1.1 1.8-6.6 3.9-12.2 2.2-5.7 6.3-15.7 9.1-22.3 2.8-6.6 9.4-20.8 14.6-31.5 5.2-10.7 10.7-20.8 12.2-22.3 1.5-1.5 4.3-3.2 6.2-3.7 2.1-0.5 6-0.5 10 0.1 3.6 0.5 12.8 1.8 20.5 2.9 7.7 1.1 26.8 3.7 42.5 5.9 21.7 3.1 29.3 3.8 32 3.1 1.9-0.6 4.7-2 6.1-3.2 1.4-1.3 8.3-8.9 15.3-17 6.9-8.2 13-15.9 13.6-17.3 0.6-1.4 1-3.8 1-5.5 0-1.7-1.8-8.1-4.1-14.2-2.2-6.2-6.8-19-10.1-28.3-3.3-9.3-8.6-24.7-11.9-34-3.3-9.3-5.9-18.1-5.9-19.5 0-1.4 0.8-4.1 1.9-6 1.4-2.6 5.4-5.8 15.2-12.2 7.4-4.8 17-11 21.4-13.8 4.4-2.8 15-9.6 23.5-15.1 8.5-5.6 16.7-10.7 18.3-11.5 1.5-0.8 4.1-1.4 5.7-1.4 1.6 0 4 0.4 5.3 0.9 1.2 0.5 19.3 15.4 40.2 33.1 20.9 17.8 39 32.7 40.3 33.1 1.2 0.5 3.7 0.9 5.5 0.9 1.7 0 10.6-2.1 19.7-4.7 9.1-2.7 17.7-5.6 19.3-6.6 1.5-0.9 3.3-2.7 4.1-3.9 0.8-1.3 4.7-15.6 8.6-31.8 3.9-16.2 8.9-37.1 11.2-46.5 2.6-11.1 4.8-18.2 6.4-20.4 1.3-1.8 3.8-3.9 5.6-4.7 2.7-1.1 12.6-1.3 100.7-0.9zm-48.4 203.5q-10.5 0-20.8 0.7c-1.5 0.1-2.8 0.2-3.7 0.3q-0.7 0.1-1.5 0.2c-67.9 6.1-128.8 35.9-174.2 81q-0.1 0-0.2 0c-0.9-0.2-2.5-1.2-3.6-2.2-1.1-1-5.4-3.4-9.5-5.3-4.1-2-10.2-4.3-13.5-5.2-3.3-0.8-10.1-2-15-2.6-7.1-0.8-11.3-0.7-20 0.5-6.1 0.9-15.1 2.3-20 3.1-4.9 0.9-11.3 2.2-14 3-2.8 0.7-11.1 3-18.5 5-7.8 2.2-17.9 5.8-24 8.7-5.8 2.8-12.9 6.8-15.8 8.9-2.8 2.2-6.6 6-8.4 8.6-1.8 2.7-4.7 9.5-6.6 15.3-2.5 7.8-3.5 13-3.9 20.5-0.3 5.5-0.1 13.8 0.5 18.5 0.6 4.7 2.1 11.6 3.4 15.5 1.3 4 4.8 10.8 8.3 16 4.5 6.7 7.9 10.4 13.5 14.7 4.1 3.2 10 6.8 13 7.9 3 1.2 7.1 2.5 9 3 1.9 0.5 14.1 2 27 3.4 9.5 1 18 2 21.9 2.7-3.9 18.5-5.9 37.6-5.9 57.3 0 154.6 126.3 279.5 282.5 279.5 43 0 83.8-9.5 120.3-26.4q0.6-0.3 1.2-0.6c6.9-3.2 17-8.3 22.5-11.5 5.5-3.2 13.8-8.4 18.5-11.6 4.7-3.2 12.5-9 17.5-12.9 5-3.9 13.7-11.7 19.5-17.4 5.8-5.6 14.4-14.7 19.1-20.1 4.8-5.5 12-15 16.1-21 4.1-6 7.8-11.7 8.2-12.5 0.3-0.8 1.6-3.1 2.8-5 1.1-1.9 4.7-8.8 7.9-15.3 3.3-6.4 7.1-14.5 8.5-18 1.4-3.4 4.1-10.5 5.9-15.7 1.8-5.2 4.7-14.7 6.4-21 1.7-6.3 4.1-17.7 5.3-25.4l2.3-13.9c10.1-5.3 17.9-10.3 23.9-14.6 7.5-5.2 14.8-11.7 23.5-20.6 9.9-10.3 14-15.4 19.2-24 3.6-6.1 8.6-15.7 11.1-21.5 2.5-5.8 5-11.9 5.6-13.5 0.6-1.6 1.8-5.7 2.7-9 0.9-3.3 2.1-7.1 2.6-8.5 0.5-1.4 1.4-5.4 2-9 0.7-3.6 1.4-11.2 1.6-17 0.3-6.1 0-13.4-0.7-17.5-0.7-3.9-2.3-12.6-3.6-19.5-1.3-6.9-3.5-15.6-4.9-19.5-1.4-3.9-3.1-8.1-3.8-9.5-0.6-1.4-2.8-5.2-4.8-8.5-2.7-4.4-5.2-7-9.6-9.7-3.3-2.1-7.7-4-10.3-4.4-3.2-0.4-5.6-0.1-8.3 1-2.1 0.9-5 3.4-6.7 5.8-1.7 2.5-3.5 6.7-4.1 9.8-0.9 4.7-0.8 6.3 1 11.5 1.5 4.3 2.3 10.4 2.9 21.5 0.5 8.5 0.6 18.4 0.2 22-0.4 3.6-1.7 10.4-2.9 15.2-1.1 4.9-2.8 10.5-3.7 12.5-0.9 2.1-2.6 5.8-3.7 8.3-1.1 2.5-4.8 8.6-8.3 13.5-3.4 4.9-8.4 11.1-11.1 13.7-2.6 2.5-6.4 5.5-8.3 6.6-2.7 1.6-3.8 1.8-4.8 0.9-0.7-0.7-1.2-1.9-1.2-2.7 0-0.8-1.4-6.9-3.1-13.5-1.7-6.6-5.1-17.6-7.6-24.5-2.4-6.9-7.8-19.4-11.9-27.8-4.1-8.3-9.7-18.9-12.5-23.4-2.8-4.6-8.2-12.6-11.9-17.8-3.7-5.2-10.1-13.3-14.2-18-4.1-4.7-12.1-13.1-17.9-18.7-5.7-5.6-14.2-13.3-18.9-17-4.7-3.8-11.4-8.9-15-11.5-3.6-2.5-10.8-7.2-16-10.3-2.7-1.6-6.3-3.7-9.9-5.7q-12.1-6.7-24.8-12.2-1.5-0.8-2.8-1.3c-4.4-1.9-12.5-5-18-6.9-1.4-0.5-3.2-1.1-5.2-1.7-12.4-4-25.1-7.1-38.2-9.4-3-0.6-5.8-1.1-8.1-1.4-4.2-0.7-8.5-1.2-13.4-1.5q-13.9-1.4-28.1-1.4z" style=""/><path id="Path 3" fill-rule="evenodd" class="s0" d="m248.5 303.7c2.8 0.3 8.4 1.1 12.5 1.9 4.1 0.8 10.6 2.9 14.5 4.7 3.8 1.8 7.7 3.8 8.5 4.5 0.8 0.7 5.1 4.1 9.5 7.5 4.4 3.4 10.1 8.4 12.8 11.2 2.6 2.7 9.1 10.4 14.5 17 5.3 6.5 12.4 14.8 15.7 18.3 3.8 4 8 7.3 11.5 9 5.1 2.4 6.5 2.5 20 2.6 13.2 0 15.5-0.3 26-3.1 6.3-1.8 14.9-4.1 19-5.3 4.1-1.1 9.8-2.7 12.5-3.6 2.8-0.8 7.5-2.1 10.5-2.9 3-0.7 8.4-2.1 12-2.9 3.6-0.9 11.4-2.1 17.5-2.7 6.1-0.5 17.9-0.8 26.3-0.5 8.3 0.3 16 1 16.9 1.5 1 0.4 4.3 1.1 7.3 1.5 3 0.4 11.6 2.7 19 5.3 7.4 2.5 16.9 6.2 21 8.3 4.1 2.1 14.9 8.5 24 14.2 9.1 5.7 18.6 12 21.1 13.9 2.6 1.9 11.1 7.8 19 13.2 7.9 5.3 19.4 13 25.4 17 6 4 11.7 7.6 12.5 8 0.8 0.4 4.2 2.5 7.5 4.7 3.3 2.1 8 5 10.5 6.3 2.5 1.4 5.9 3.2 7.5 4.1 1.6 0.9 3.6 1.6 4.3 1.6 0.6 0 2.4 0.7 4 1.5 1.5 0.8 4.7 2.2 7.2 3.1 2.5 0.8 8.3 2.6 13 4 4.7 1.4 12.3 3.1 17 4 5.5 1 12.2 1.3 19 1 7.9-0.3 12.7-1.1 19.5-3.3 5-1.6 11.9-4.5 15.5-6.5 3.6-2 9.2-6.2 12.6-9.4 3.3-3.3 9-10.2 12.6-15.4 3.6-5.2 7.4-11.3 8.6-13.5 1.1-2.2 3.3-7.6 5-12 1.7-4.4 3.7-10.9 4.6-14.5 0.9-3.6 2.1-10.3 2.6-15 0.6-4.7 0.8-12.1 0.5-16.5-0.3-4.4-0.7-12.3-0.9-17.5-0.3-6.4-1.1-11-2.4-14-1.4-3.5-1.7-5.3-1-8 0.5-1.9 1.5-4 2.1-4.7 0.7-0.6 2.3-0.9 3.7-0.7 1.4 0.3 4.1 1.7 6 3.3 1.9 1.5 5 5.6 6.8 9 1.7 3.3 4.1 8.7 5.2 11.9 1.1 3.1 3.2 11.6 4.7 18.7 2.4 11.2 2.8 15.4 2.8 30.5 0 15-0.3 18.6-2.2 25.5-1.2 4.4-3.4 11.6-4.9 16-1.4 4.4-4.6 12.3-7.1 17.5-2.5 5.2-6.1 12.2-8.1 15.5-1.9 3.3-5.8 8.7-8.6 12-2.7 3.3-8.4 9.3-12.6 13.3-4.1 4-9.5 9-12 11.1-2.5 2.1-8.5 6.5-13.5 9.8-5 3.3-12.8 7.6-17.5 9.5-4.7 2-11.6 4.6-15.5 5.7-3.9 1.2-13.3 3.2-21 4.6-7.7 1.3-16.5 2.7-19.5 3-3 0.4-6.9 0.9-8.5 1.1-1.6 0.2-4.8 0.6-7 0.8-2.2 0.2-6.7 0.7-10 1-3.3 0.3-13 0.8-21.5 1.2-8.5 0.3-23.8 0.6-34 0.7-16.7 0.1-18.8-0.1-22-1.9-2.5-1.4-3.6-2.8-3.7-4.7q-0.3-2.7 4.5-10.2c2.6-4.1 5.6-9 6.7-10.9 1.1-2 5.2-8.6 9.2-14.8 3.9-6.2 7.9-13.3 8.8-15.8 0.8-2.5 1.5-5.4 1.5-6.5 0.1-1.1-1.2-3.9-2.7-6.2-1.6-2.4-4.2-5.2-5.8-6.3-1.6-1.1-4.4-2-6-2-1.9 0-3.7 0.8-5 2.2-1.1 1.3-3 3.7-4.1 5.3-1.2 1.6-3.6 5.5-5.4 8.5-1.8 3-6.1 10.9-9.5 17.5-3.4 6.6-7.4 14.3-8.9 17-1.5 2.8-5.3 10.6-8.4 17.3-4.5 9.8-5.5 12.7-4.6 14 0.6 1 2.5 2.6 4.1 3.7 1.7 1.1 5.7 3.7 9 5.7 3.2 2.1 12.1 8.1 19.8 13.4 7.7 5.3 16.4 11 19.4 12.8 2.9 1.7 5.7 3.8 6.1 4.6 0.4 0.8-0.1 4-1 7-1 3-2.3 8.9-2.9 13-0.6 4.1-2.4 21.8-4.1 39.3-1.6 17.4-3.5 32.7-4.1 34-0.7 1.2-1.7 2.5-2.3 2.9-0.6 0.4-3.8 0.8-7.1 0.8-3.3 0-11.6-0.5-18.5-1-6.9-0.6-24.4-2.2-39-3.6-14.6-1.4-26.8-2.8-27.3-3-0.4-0.2-0.7-1.9-0.7-3.6 0-1.9 1.2-5.2 2.8-7.8 1.6-2.5 5.8-7.4 9.3-10.8 3.5-3.5 7.8-7.1 9.4-7.9 1.8-0.9 5.4-1.5 9-1.5 3.3 0.1 9.8 0.6 14.5 1.1 4.7 0.6 9.4 1.2 10.5 1.3 1.8 0.3 2-0.9 3.6-16.2 1-9.1 1.5-16.8 1.3-17.2-0.2-0.5-7.5-4.3-16.1-8.6-8.7-4.3-19.6-9.9-24.3-12.3-4.7-2.5-14.1-7-21-10.1-6.9-3-15.2-7.2-18.5-9.3-3.3-2.1-8.7-6.6-12-10-3.4-3.5-7.4-9-9.2-12.6-1.7-3.5-3.7-9.1-4.3-12.4-0.7-3.5-1-8.8-0.6-12.7 0.3-3.8 1.7-10.1 3-14 1.3-4 3.4-10 4.7-13.3 1.2-3.3 3.6-8.5 5.2-11.5 1.6-3 6.3-10.7 10.5-17 4.1-6.3 9.5-14.6 12.1-18.5 2.5-3.8 7.7-10.1 11.6-14 3.9-3.9 9.8-9.5 13.3-12.5 4.7-4.1 6.6-6.5 7.3-9.2 0.5-2.1 0.7-4.2 0.4-4.8-0.3-0.5-2.4-1.9-4.7-3-2.8-1.3-6.5-2-10.5-2-4.5 0-7.5 0.6-10.5 2.2-2.4 1.2-6.6 4.4-9.4 7.2-2.7 2.8-7.5 8.5-10.5 12.6-3 4.1-7 10-8.8 13-1.9 3-6.3 10.2-9.7 16-3.5 5.8-6.8 11.1-7.3 11.8-0.6 0.6-4 7.2-7.5 14.5-3.6 7.2-7.8 16.8-9.5 21.2-1.7 4.4-3.8 11.8-4.6 16.5-0.8 4.7-1.8 10.8-2.2 13.5-0.7 4.6-1 5-3.8 5.3-1.6 0.2-3.4-0.2-4-0.8-0.6-0.6-2.6-1-4.5-1-2 0.1-4.4-0.7-5.6-1.7-1.1-1-2.9-4.5-3.9-7.8-1-3.3-3.5-10-5.5-15-2-4.9-4.9-12.8-6.4-17.5-1.5-4.7-4.3-12.3-6.2-17-2-4.7-5.3-12.1-7.4-16.5-2.4-4.9-5.4-9.4-7.9-11.7-2.7-2.5-6.1-4.3-9.8-5.4-3.3-0.9-7.8-1.4-10.3-1.1-2.5 0.2-5.9 1.1-7.5 1.9-1.6 0.8-3.3 2.3-3.7 3.2-0.5 0.9-0.8 3.6-0.8 6.1 0 4.5 0 4.5 4.8 6.2 2.6 0.9 6.1 2.1 7.7 2.8 1.6 0.6 4.2 2.7 5.7 4.6 1.5 1.9 2.8 3.7 2.8 4.2 0 0.4 2.2 5.3 4.9 11 2.6 5.6 5.2 11.3 5.6 12.7 0.4 1.4 1.9 5.2 3.3 8.5 1.4 3.3 4 7.8 5.6 10 2 2.5 3 4.8 2.8 6.5-0.2 1.4 0.4 3.4 1.2 4.5 0.8 1.1 1.3 3 1 4.3-0.2 1.2 0.2 2.9 0.9 3.9 0.7 1 1.1 3.8 0.9 7.2-0.3 4.8-0.9 6.1-3.7 9.1-1.9 1.9-7.3 6.2-12 9.5-4.8 3.3-13.8 9.6-20 14-6.3 4.4-12.4 8.9-13.7 10-2.1 1.8-2.4 2.9-2.7 11.5-0.1 5.2-0.5 12-0.9 15-0.6 4.4-1.2 5.7-3.2 6.8-1.7 0.9-4.6 1.1-9.2 0.8-3.8-0.4-8.2-1.3-9.8-2.1-1.6-0.8-3.9-3-5-4.7-1-1.8-2.6-5.5-3.4-8.3-1-3.4-1.4-8.2-1.2-15 0.2-5.5 0.8-11.8 1.5-14 0.6-2.3 2.9-5.9 5.3-8.5 2.4-2.5 8.1-7.7 12.8-11.5 4.7-3.9 11.8-9.7 15.8-13 5.9-4.8 7.2-6.4 6.6-8-0.3-1.1-1.9-4.8-3.5-8.2-1.6-3.5-2.9-6.5-2.9-6.8 0-0.3-1.5-2.9-3.2-5.8-1.8-2.9-3.8-6.2-4.4-7.3-0.9-1.6-2.3-1.9-8.5-2-6.7 0-8.2-0.5-15.4-4.2-4.4-2.3-9.6-5.2-11.7-6.4-2-1.3-7.1-5-11.3-8.3-4.3-3.3-8.9-6.9-10.4-8-1.4-1.1-3.5-2.9-4.6-4-1.1-1.1-6.7-6.3-12.5-11.5-5.8-5.2-10.6-9.8-10.7-10.2-0.2-0.5-0.7-0.8-1.3-0.8-0.6 0-2.5-1.1-4.2-2.4-1.8-1.3-6-3.6-9.3-5-3.3-1.5-9.8-3.3-14.5-4.1-4.7-0.8-20.7-2.6-35.5-4-14.8-1.3-29.5-3-32.5-3.6-3-0.6-7.5-1.8-10-2.7-2.5-0.9-6.3-2.8-8.5-4.3-2.2-1.5-6.3-5.1-9-8-2.8-3-6.7-8.8-8.7-12.9-2-4.1-4.1-9.7-4.7-12.5-0.6-2.7-1.4-8.8-1.7-13.5-0.2-4.7 0-11.5 0.6-15.2 0.5-3.8 1.4-7.6 1.9-8.5 0.5-1 1.7-4.5 2.6-7.8 1.4-4.8 2.7-7 6.9-11 2.9-2.7 8.3-6.5 12.2-8.3 3.8-1.9 8-4 9.4-4.7 1.4-0.7 6.1-2.3 10.5-3.5 4.4-1.2 11.4-3.1 15.5-4.2 4.1-1.1 8.2-2.1 9-2.3 0.8-0.3 3.4-0.9 5.8-1.5 2.3-0.5 7-1.4 10.5-2 3.4-0.5 7.5-1.2 9.2-1.5 1.7-0.3 5.7-0.9 9-1.4 3.3-0.4 8.3-0.6 11-0.4zm81 206.3c0.6 0 1.7 0.5 2.6 1.2 0.8 0.7 2.8 3.1 4.4 5.3 1.6 2.2 4 5.1 5.2 6.5 1.2 1.4 2.8 3.6 3.5 4.9 1.1 2 1 2.5-0.9 4-1.2 0.9-5.8 3.9-10.2 6.6-4.5 2.8-10.8 6.7-14.1 8.8-3.3 2-6.4 3.7-7 3.7-0.6 0-1.6 1-2.4 2.3-0.8 1.2-1.7 6.2-2.1 11.7-0.3 5.2-1 12.2-1.5 15.5-0.6 3.3-1.7 6.7-2.7 7.5-1.1 1-3.8 1.5-8.9 1.5-6.6 0-7.5-0.3-11.1-3.1-2.1-1.7-4.4-4.4-5.2-6-0.8-1.6-1.5-5.1-1.7-7.9-0.2-2.7 0.1-9.7 0.7-15.5 0.5-5.8 1.5-12.7 2.1-15.5 0.9-3.8 2.3-6.1 6-9.7 2.6-2.7 8.5-6.8 13.1-9.3 4.5-2.4 11.8-5.7 16.2-7.4 4.4-1.6 9.1-3.4 10.5-3.9 1.4-0.6 2.9-1.1 3.5-1.2zm105.7 40.5c0.7 0.3 6.5 0.6 24.3 1.2l5.7 8.4c3.1 4.6 8.9 11.7 13 15.7 4 4 11.6 10.1 16.8 13.6 5.2 3.5 12.2 7.8 15.5 9.5 3.3 1.7 7.4 3.4 9 3.7 1.6 0.4 4.5 1.4 6.4 2.3 3.1 1.5 3.3 1.9 2.9 5.6-0.3 2.2-2.8 8.8-5.6 14.8-2.9 5.9-5.2 11-5.2 11.5 0 0.4-2.7 6.2-6 13-3.3 6.7-6 12.5-6 13-0.1 0.4-1.2 2.1-5 6.7l-11.2-0.9c-6.2-0.5-13.3-1-15.8-1.1-2.5-0.1-12.9-0.7-23.3-1.4-10.3-0.6-22-1.8-25.9-2.7-4-0.8-7.6-1.7-8.1-2-0.4-0.2 0.1-2.5 1.1-5.1 1-2.7 3.3-7 5.2-9.8 1.9-2.7 5.9-7.5 8.9-10.6 3.9-3.9 6.7-5.9 9.1-6.3 1.9-0.4 9.4 0 16.5 0.8 7.1 0.9 14.1 1.8 15.5 2.1 2.5 0.7 2.5 0.6 3.3-8.2 0.5-4.8 1.5-12.8 2.3-17.8 0.8-5 1.3-9.7 1-10.5-0.3-0.8-5.8-4.1-12.3-7.3-6.5-3.2-16.1-8.4-21.3-11.5-5.2-3.1-11.5-7-14-8.7-3.3-2.3-4.6-3.9-4.8-6.1-0.2-1.7 0.4-3.8 1.5-5.1 1-1.3 2.6-3.4 3.5-4.7 1-1.4 2.3-2.3 3-2.1zm-201.7-209.6c-1.7 1-4.1 3.1-5.5 4.6-1.6 1.7-2.7 4.5-3.1 7.4-0.5 3.1-0.2 5.8 0.8 8.1 0.8 1.9 2.2 4.3 3.1 5.4 0.9 1 3 2.5 4.7 3.3 1.7 0.9 5 1.6 7.5 1.6 2.5 0.1 6.2-0.7 8.3-1.6 2-0.9 4.6-3.2 5.7-4.9 1.4-2.3 2-5 2-8.8 0-4.1-0.6-6.3-2.3-8.7-1.2-1.8-4-4.4-6.2-5.8-2.6-1.6-5.4-2.5-8-2.5-2.2 0-5.3 0.8-7 1.9zm-58.3 9.6c-2.1 1-3.7 2.8-4.8 5.3-0.8 2-1.3 4.8-1 6.2 0.3 1.4 1.3 3.2 2.3 4 0.9 0.8 3.3 2 5.3 2.6 2.6 0.9 4.1 0.9 5.8 0 1.2-0.6 2.4-2.2 2.7-3.6 0.2-1.4 0.7-4.1 1.1-6 0.5-3 0.1-4-2.5-6.7-1.7-1.8-3.7-3.3-4.4-3.3-0.6 0.1-2.7 0.7-4.5 1.5z" style=""/></g><text style="fill: rgb(30, 30, 30); font-family: &quot;Noto Sans&quot;; font-size: 1009px; font-weight: 800; white-space: pre;" transform="matrix(1, 0, 0, 1.00091, 0, 52.305481)" x="970.515" y="741.84"><title>Rustyscript logo</title>Rustyscript</text><text style="fill: rgb(30, 30, 30); font-family: &quot;Noto Sans&quot;; font-size: 142px; font-weight: 600; white-space: pre;" x="1046.2" y="1014.76">Effortless JS Integration for Rust</text></svg>